<svg width="288" height="31" viewBox="0 0 288 31" fill="none" xmlns="http://www.w3.org/2000/svg">
<path d="M14.3729 2.18182H18.9858V16.3509C18.9858 17.9418 18.6058 19.3338 17.8459 20.527C17.093 21.7202 16.0384 22.6506 14.6818 23.3182C13.3253 23.9787 11.745 24.3089 9.94105 24.3089C8.12997 24.3089 6.54617 23.9787 5.18963 23.3182C3.8331 22.6506 2.77841 21.7202 2.02557 20.527C1.27273 19.3338 0.896307 17.9418 0.896307 16.3509V2.18182H5.50923V15.9567C5.50923 16.7876 5.69034 17.5263 6.05256 18.1726C6.42188 18.8189 6.94034 19.3267 7.60795 19.696C8.27557 20.0653 9.05327 20.25 9.94105 20.25C10.8359 20.25 11.6136 20.0653 12.2741 19.696C12.9418 19.3267 13.4567 18.8189 13.8189 18.1726C14.1882 17.5263 14.3729 16.7876 14.3729 15.9567V2.18182ZM22.6958 30.1364V7.63636H27.1703V10.3849H27.3727C27.5716 9.9446 27.8592 9.49716 28.2356 9.04261C28.6191 8.58097 29.1163 8.19744 29.7271 7.89205C30.345 7.57955 31.112 7.4233 32.0282 7.4233C33.2214 7.4233 34.3223 7.7358 35.3308 8.3608C36.3393 8.97869 37.1454 9.91264 37.7491 11.1626C38.3528 12.4055 38.6547 13.9645 38.6547 15.8395C38.6547 17.6648 38.3599 19.206 37.7704 20.4631C37.188 21.7131 36.3926 22.6612 35.3841 23.3075C34.3826 23.9467 33.2605 24.2663 32.0176 24.2663C31.1369 24.2663 30.3876 24.1207 29.7697 23.8295C29.1589 23.5384 28.6582 23.1726 28.2676 22.7322C27.877 22.2848 27.5787 21.8338 27.3727 21.3793H27.2342V30.1364H22.6958ZM27.1383 15.8182C27.1383 16.7912 27.2733 17.6399 27.5431 18.3643C27.813 19.0888 28.2037 19.6534 28.715 20.0582C29.2264 20.456 29.8478 20.6548 30.5794 20.6548C31.318 20.6548 31.943 20.4524 32.4544 20.0476C32.9657 19.6357 33.3528 19.0675 33.6156 18.343C33.8855 17.6115 34.0204 16.7699 34.0204 15.8182C34.0204 14.8736 33.889 14.0426 33.6262 13.3253C33.3635 12.608 32.9764 12.0469 32.465 11.642C31.9537 11.2372 31.3251 11.0348 30.5794 11.0348C29.8407 11.0348 29.2157 11.2301 28.7044 11.6207C28.2001 12.0114 27.813 12.5653 27.5431 13.2827C27.2733 14 27.1383 14.8452 27.1383 15.8182ZM49.0737 24.3196C47.3975 24.3196 45.9558 23.9645 44.7484 23.2543C43.5481 22.5369 42.6248 21.5426 41.9785 20.2713C41.3393 19 41.0197 17.5369 41.0197 15.8821C41.0197 14.206 41.3429 12.7358 41.9892 11.4716C42.6426 10.2003 43.5694 9.20952 44.7697 8.49929C45.97 7.78196 47.3975 7.4233 49.0524 7.4233C50.4799 7.4233 51.7299 7.68253 52.8024 8.20099C53.8748 8.71946 54.7235 9.44744 55.3485 10.3849C55.9735 11.3224 56.318 12.4233 56.3819 13.6875H52.0993C51.9785 12.8707 51.6589 12.2138 51.1404 11.7166C50.6291 11.2124 49.9579 10.9602 49.127 10.9602C48.4238 10.9602 47.8095 11.152 47.2839 11.5355C46.7654 11.9119 46.3606 12.4624 46.0694 13.1868C45.7782 13.9112 45.6326 14.7884 45.6326 15.8182C45.6326 16.8622 45.7747 17.75 46.0588 18.4815C46.35 19.2131 46.7583 19.7706 47.2839 20.1541C47.8095 20.5376 48.4238 20.7294 49.127 20.7294C49.6454 20.7294 50.1106 20.6229 50.5226 20.4098C50.9416 20.1967 51.286 19.8878 51.5559 19.483C51.8329 19.071 52.014 18.5774 52.0993 18.0021H56.3819C56.3109 19.2521 55.97 20.353 55.3592 21.3047C54.7555 22.2493 53.921 22.9879 52.8556 23.5206C51.7903 24.0533 50.5297 24.3196 49.0737 24.3196ZM66.6811 24.3196C65.0263 24.3196 63.5952 23.968 62.3878 23.2649C61.1875 22.5547 60.2607 21.5675 59.6072 20.3033C58.9538 19.032 58.6271 17.5582 58.6271 15.8821C58.6271 14.1918 58.9538 12.7145 59.6072 11.4503C60.2607 10.179 61.1875 9.19176 62.3878 8.48864C63.5952 7.77841 65.0263 7.4233 66.6811 7.4233C68.3359 7.4233 69.7635 7.77841 70.9638 8.48864C72.1712 9.19176 73.1016 10.179 73.755 11.4503C74.4084 12.7145 74.7351 14.1918 74.7351 15.8821C74.7351 17.5582 74.4084 19.032 73.755 20.3033C73.1016 21.5675 72.1712 22.5547 70.9638 23.2649C69.7635 23.968 68.3359 24.3196 66.6811 24.3196ZM66.7024 20.804C67.4553 20.804 68.0838 20.5909 68.5881 20.1648C69.0923 19.7315 69.4723 19.142 69.728 18.3963C69.9908 17.6506 70.1222 16.8018 70.1222 15.8501C70.1222 14.8984 69.9908 14.0497 69.728 13.304C69.4723 12.5582 69.0923 11.9687 68.5881 11.5355C68.0838 11.1023 67.4553 10.8857 66.7024 10.8857C65.9425 10.8857 65.3033 11.1023 64.7848 11.5355C64.2734 11.9687 63.8864 12.5582 63.6236 13.304C63.3679 14.0497 63.2401 14.8984 63.2401 15.8501C63.2401 16.8018 63.3679 17.6506 63.6236 18.3963C63.8864 19.142 64.2734 19.7315 64.7848 20.1648C65.3033 20.5909 65.9425 20.804 66.7024 20.804ZM77.6861 24V7.63636H82.0114V10.5234H82.2031C82.544 9.56463 83.1122 8.80824 83.9077 8.25426C84.7031 7.70028 85.6548 7.4233 86.7628 7.4233C87.8849 7.4233 88.8402 7.70384 89.6286 8.26491C90.4169 8.81889 90.9425 9.57173 91.2053 10.5234H91.3757C91.7095 9.58594 92.3132 8.83665 93.1868 8.27557C94.0675 7.70739 95.108 7.4233 96.3082 7.4233C97.8352 7.4233 99.0746 7.9098 100.026 8.88281C100.985 9.84872 101.464 11.2195 101.464 12.995V24H96.9368V13.8899C96.9368 12.9808 96.6953 12.299 96.2124 11.8445C95.7294 11.3899 95.1257 11.1626 94.4013 11.1626C93.5774 11.1626 92.9347 11.4254 92.473 11.951C92.0114 12.4695 91.7805 13.1548 91.7805 14.0071V24H87.3807V13.794C87.3807 12.9915 87.1499 12.3523 86.6882 11.8764C86.2337 11.4006 85.6335 11.1626 84.8878 11.1626C84.3835 11.1626 83.929 11.2905 83.5241 11.5462C83.1264 11.7947 82.8104 12.1463 82.576 12.6009C82.3416 13.0483 82.2244 13.5739 82.2244 14.1776V24H77.6861ZM105.049 24V7.63636H109.588V24H105.049ZM107.329 5.52699C106.654 5.52699 106.076 5.30327 105.593 4.85582C105.117 4.40128 104.879 3.85795 104.879 3.22585C104.879 2.60085 105.117 2.06463 105.593 1.61719C106.076 1.16264 106.654 0.935368 107.329 0.935368C108.004 0.935368 108.579 1.16264 109.055 1.61719C109.538 2.06463 109.779 2.60085 109.779 3.22585C109.779 3.85795 109.538 4.40128 109.055 4.85582C108.579 5.30327 108.004 5.52699 107.329 5.52699ZM117.762 14.5398V24H113.223V7.63636H117.548V10.5234H117.74C118.102 9.57173 118.71 8.81889 119.562 8.26491C120.414 7.70384 121.448 7.4233 122.662 7.4233C123.798 7.4233 124.789 7.67187 125.634 8.16903C126.48 8.66619 127.137 9.37642 127.605 10.2997C128.074 11.2159 128.308 12.3097 128.308 13.581V24H123.77V14.3906C123.777 13.3892 123.521 12.608 123.003 12.0469C122.485 11.4787 121.771 11.1946 120.862 11.1946C120.251 11.1946 119.711 11.326 119.242 11.5888C118.781 11.8516 118.419 12.2351 118.156 12.7393C117.9 13.2365 117.769 13.8366 117.762 14.5398ZM139.257 30.4773C137.787 30.4773 136.527 30.2749 135.475 29.87C134.431 29.4723 133.6 28.929 132.983 28.2401C132.365 27.5511 131.963 26.777 131.779 25.9176L135.976 25.353C136.104 25.6797 136.306 25.9851 136.583 26.2692C136.86 26.5533 137.226 26.7805 137.681 26.951C138.142 27.1286 138.703 27.2173 139.364 27.2173C140.351 27.2173 141.164 26.9759 141.804 26.4929C142.45 26.017 142.773 25.218 142.773 24.0959V21.1023H142.581C142.382 21.5568 142.084 21.9865 141.686 22.3913C141.289 22.7962 140.777 23.1264 140.152 23.3821C139.527 23.6378 138.782 23.7656 137.915 23.7656C136.686 23.7656 135.568 23.4815 134.559 22.9134C133.558 22.3381 132.759 21.4609 132.162 20.282C131.573 19.0959 131.278 17.5973 131.278 15.7862C131.278 13.9325 131.58 12.3842 132.184 11.1413C132.787 9.89844 133.59 8.96804 134.591 8.35014C135.6 7.73224 136.704 7.4233 137.904 7.4233C138.821 7.4233 139.588 7.57955 140.206 7.89205C140.824 8.19744 141.321 8.58097 141.697 9.04261C142.081 9.49716 142.375 9.9446 142.581 10.3849H142.752V7.63636H147.258V24.1598C147.258 25.5518 146.917 26.7166 146.235 27.6541C145.554 28.5916 144.609 29.2947 143.402 29.7635C142.201 30.2393 140.82 30.4773 139.257 30.4773ZM139.353 20.3565C140.085 20.3565 140.703 20.1754 141.207 19.8132C141.718 19.4439 142.109 18.9183 142.379 18.2365C142.656 17.5476 142.794 16.7237 142.794 15.7649C142.794 14.8061 142.659 13.9751 142.39 13.272C142.12 12.5618 141.729 12.0114 141.218 11.6207C140.706 11.2301 140.085 11.0348 139.353 11.0348C138.608 11.0348 137.979 11.2372 137.468 11.642C136.956 12.0398 136.569 12.5937 136.306 13.304C136.044 14.0142 135.912 14.8345 135.912 15.7649C135.912 16.7095 136.044 17.5263 136.306 18.2152C136.576 18.897 136.963 19.4261 137.468 19.8026C137.979 20.1719 138.608 20.3565 139.353 20.3565ZM161.659 24H156.716L164.248 2.18182H170.192L177.714 24H172.77L167.305 7.16761H167.135L161.659 24ZM161.35 15.424H173.026V19.0249H161.35V15.424ZM190.748 17.0327V7.63636H195.286V24H190.929V21.0277H190.759C190.389 21.9865 189.775 22.7571 188.916 23.3395C188.063 23.9219 187.023 24.2131 185.794 24.2131C184.7 24.2131 183.738 23.9645 182.907 23.4673C182.076 22.9702 181.426 22.2635 180.958 21.3473C180.496 20.4311 180.262 19.3338 180.254 18.0554V7.63636H184.793V17.2457C184.8 18.2116 185.059 18.9751 185.57 19.5362C186.082 20.0973 186.767 20.3778 187.627 20.3778C188.173 20.3778 188.685 20.2536 189.161 20.005C189.637 19.7493 190.02 19.3729 190.311 18.8757C190.61 18.3786 190.755 17.7642 190.748 17.0327ZM206.31 24.3196C204.634 24.3196 203.192 23.9645 201.985 23.2543C200.784 22.5369 199.861 21.5426 199.215 20.2713C198.576 19 198.256 17.5369 198.256 15.8821C198.256 14.206 198.579 12.7358 199.225 11.4716C199.879 10.2003 200.806 9.20952 202.006 8.49929C203.206 7.78196 204.634 7.4233 206.289 7.4233C207.716 7.4233 208.966 7.68253 210.039 8.20099C211.111 8.71946 211.96 9.44744 212.585 10.3849C213.21 11.3224 213.554 12.4233 213.618 13.6875H209.336C209.215 12.8707 208.895 12.2138 208.377 11.7166C207.865 11.2124 207.194 10.9602 206.363 10.9602C205.66 10.9602 205.046 11.152 204.52 11.5355C204.002 11.9119 203.597 12.4624 203.306 13.1868C203.015 13.9112 202.869 14.7884 202.869 15.8182C202.869 16.8622 203.011 17.75 203.295 18.4815C203.586 19.2131 203.995 19.7706 204.52 20.1541C205.046 20.5376 205.66 20.7294 206.363 20.7294C206.882 20.7294 207.347 20.6229 207.759 20.4098C208.178 20.1967 208.522 19.8878 208.792 19.483C209.069 19.071 209.25 18.5774 209.336 18.0021H213.618C213.547 19.2521 213.206 20.353 212.596 21.3047C211.992 22.2493 211.157 22.9879 210.092 23.5206C209.027 24.0533 207.766 24.3196 206.31 24.3196ZM225.228 7.63636V11.0455H215.373V7.63636H225.228ZM217.611 3.71591H222.149V18.9716C222.149 19.3906 222.213 19.7173 222.341 19.9517C222.469 20.179 222.646 20.3388 222.873 20.4311C223.108 20.5234 223.378 20.5696 223.683 20.5696C223.896 20.5696 224.109 20.5518 224.322 20.5163C224.535 20.4737 224.699 20.4418 224.812 20.4205L225.526 23.7976C225.299 23.8686 224.979 23.9503 224.567 24.0426C224.155 24.142 223.655 24.2024 223.065 24.2237C221.971 24.2663 221.013 24.1207 220.189 23.7869C219.372 23.4531 218.736 22.9347 218.282 22.2315C217.827 21.5284 217.604 20.6406 217.611 19.5682V3.71591ZM228.184 24V7.63636H232.722V24H228.184ZM230.464 5.52699C229.789 5.52699 229.21 5.30327 228.727 4.85582C228.252 4.40128 228.014 3.85795 228.014 3.22585C228.014 2.60085 228.252 2.06463 228.727 1.61719C229.21 1.16264 229.789 0.935368 230.464 0.935368C231.139 0.935368 231.714 1.16264 232.19 1.61719C232.673 2.06463 232.914 2.60085 232.914 3.22585C232.914 3.85795 232.673 4.40128 232.19 4.85582C231.714 5.30327 231.139 5.52699 230.464 5.52699ZM243.751 24.3196C242.097 24.3196 240.665 23.968 239.458 23.2649C238.258 22.5547 237.331 21.5675 236.678 20.3033C236.024 19.032 235.697 17.5582 235.697 15.8821C235.697 14.1918 236.024 12.7145 236.678 11.4503C237.331 10.179 238.258 9.19176 239.458 8.48864C240.665 7.77841 242.097 7.4233 243.751 7.4233C245.406 7.4233 246.834 7.77841 248.034 8.48864C249.241 9.19176 250.172 10.179 250.825 11.4503C251.479 12.7145 251.805 14.1918 251.805 15.8821C251.805 17.5582 251.479 19.032 250.825 20.3033C250.172 21.5675 249.241 22.5547 248.034 23.2649C246.834 23.968 245.406 24.3196 243.751 24.3196ZM243.773 20.804C244.526 20.804 245.154 20.5909 245.658 20.1648C246.163 19.7315 246.543 19.142 246.798 18.3963C247.061 17.6506 247.192 16.8018 247.192 15.8501C247.192 14.8984 247.061 14.0497 246.798 13.304C246.543 12.5582 246.163 11.9687 245.658 11.5355C245.154 11.1023 244.526 10.8857 243.773 10.8857C243.013 10.8857 242.374 11.1023 241.855 11.5355C241.344 11.9687 240.957 12.5582 240.694 13.304C240.438 14.0497 240.31 14.8984 240.31 15.8501C240.31 16.8018 240.438 17.6506 240.694 18.3963C240.957 19.142 241.344 19.7315 241.855 20.1648C242.374 20.5909 243.013 20.804 243.773 20.804ZM259.295 14.5398V24H254.756V7.63636H259.082V10.5234H259.273C259.636 9.57173 260.243 8.81889 261.095 8.26491C261.947 7.70384 262.981 7.4233 264.195 7.4233C265.332 7.4233 266.322 7.67187 267.168 8.16903C268.013 8.66619 268.67 9.37642 269.138 10.2997C269.607 11.2159 269.842 12.3097 269.842 13.581V24H265.303V14.3906C265.31 13.3892 265.055 12.608 264.536 12.0469C264.018 11.4787 263.304 11.1946 262.395 11.1946C261.784 11.1946 261.244 11.326 260.776 11.5888C260.314 11.8516 259.952 12.2351 259.689 12.7393C259.433 13.2365 259.302 13.8366 259.295 14.5398ZM287.034 12.3026L282.879 12.5582C282.808 12.2031 282.655 11.8835 282.421 11.5994C282.186 11.3082 281.877 11.0774 281.494 10.907C281.117 10.7294 280.666 10.6406 280.141 10.6406C279.438 10.6406 278.845 10.7898 278.362 11.0881C277.879 11.3793 277.637 11.7699 277.637 12.2599C277.637 12.6506 277.794 12.9808 278.106 13.2507C278.419 13.5206 278.955 13.7372 279.715 13.9006L282.676 14.4972C284.267 14.8239 285.453 15.3494 286.235 16.0739C287.016 16.7983 287.406 17.75 287.406 18.929C287.406 20.0014 287.09 20.9425 286.458 21.7521C285.833 22.5618 284.974 23.1939 283.88 23.6484C282.794 24.0959 281.54 24.3196 280.119 24.3196C277.953 24.3196 276.227 23.8686 274.942 22.9666C273.664 22.0575 272.914 20.8217 272.694 19.2592L277.158 19.0249C277.293 19.6854 277.619 20.1896 278.138 20.5376C278.656 20.8786 279.32 21.049 280.13 21.049C280.926 21.049 281.565 20.8963 282.048 20.5909C282.538 20.2784 282.786 19.8771 282.794 19.3871C282.786 18.9751 282.612 18.6378 282.271 18.375C281.931 18.1051 281.405 17.8991 280.695 17.7571L277.861 17.1925C276.263 16.8729 275.073 16.3189 274.292 15.5305C273.518 14.7422 273.131 13.7372 273.131 12.5156C273.131 11.4645 273.415 10.5589 273.983 9.79901C274.558 9.03906 275.365 8.45313 276.401 8.04119C277.445 7.62926 278.667 7.4233 280.066 7.4233C282.133 7.4233 283.759 7.86009 284.945 8.73366C286.139 9.60724 286.835 10.7969 287.034 12.3026Z" fill="white"/>
</svg>
